<svg xmlns="http://www.w3.org/2000/svg" xmlns:xlink="http://www.w3.org/1999/xlink" width="500" zoomAndPan="magnify" viewBox="0 0 375 374.999991" height="500" preserveAspectRatio="xMidYMid meet" version="1.2"><defs><clipPath id="6df44fba3b"><path d="M 52.335938 177.355469 L 97.484375 177.355469 L 97.484375 222.441406 L 52.335938 222.441406 Z M 52.335938 177.355469 "/></clipPath><clipPath id="e1791ac95d"><path d="M 59.152344 184.121094 L 90.671875 184.121094 L 90.671875 215.679688 L 59.152344 215.679688 Z M 59.152344 184.121094 "/></clipPath></defs><g id="b05044f0fd"><g clip-rule="nonzero" clip-path="url(#6df44fba3b)"><path style=" stroke:none;fill-rule:nonzero;fill:#ffffff;fill-opacity:1;" d="M 52.335938 177.355469 L 97.421875 177.355469 L 97.421875 222.441406 L 52.335938 222.441406 Z M 52.335938 177.355469 "/></g><g clip-rule="nonzero" clip-path="url(#e1791ac95d)"><path style=" stroke:none;fill-rule:nonzero;fill:#000000;fill-opacity:1;" d="M 59.152344 184.121094 L 90.671875 184.121094 L 90.671875 215.640625 L 59.152344 215.640625 Z M 59.152344 184.121094 "/></g><g style="fill:#ffffff;fill-opacity:1;"><g transform="translate(108.813509, 212.351833)"><path style="stroke:none" d="M 30.21875 -13.828125 C 30.21875 -11.847656 29.847656 -9.984375 29.109375 -8.234375 C 28.367188 -6.484375 27.359375 -4.96875 26.078125 -3.6875 C 24.804688 -2.414062 23.300781 -1.410156 21.5625 -0.671875 C 19.820312 0.0664062 17.96875 0.4375 16 0.4375 C 14.019531 0.4375 12.15625 0.0664062 10.40625 -0.671875 C 8.65625 -1.410156 7.140625 -2.414062 5.859375 -3.6875 C 4.585938 -4.96875 3.582031 -6.484375 2.84375 -8.234375 C 2.101562 -9.984375 1.734375 -11.847656 1.734375 -13.828125 C 1.734375 -15.796875 2.101562 -17.65625 2.84375 -19.40625 C 3.582031 -21.164062 4.585938 -22.679688 5.859375 -23.953125 C 7.140625 -25.234375 8.65625 -26.238281 10.40625 -26.96875 C 12.15625 -27.707031 14.019531 -28.078125 16 -28.078125 C 17.96875 -28.078125 19.820312 -27.707031 21.5625 -26.96875 C 23.300781 -26.238281 24.804688 -25.234375 26.078125 -23.953125 C 27.359375 -22.679688 28.367188 -21.164062 29.109375 -19.40625 C 29.847656 -17.65625 30.21875 -15.796875 30.21875 -13.828125 Z M 27.140625 -13.828125 C 27.140625 -15.429688 26.847656 -16.9375 26.265625 -18.34375 C 25.691406 -19.757812 24.910156 -20.972656 23.921875 -21.984375 C 22.929688 -22.992188 21.75 -23.796875 20.375 -24.390625 C 19.007812 -24.984375 17.550781 -25.28125 16 -25.28125 C 14.414062 -25.28125 12.9375 -24.984375 11.5625 -24.390625 C 10.195312 -23.796875 9.019531 -22.992188 8.03125 -21.984375 C 7.050781 -20.972656 6.269531 -19.757812 5.6875 -18.34375 C 5.101562 -16.9375 4.8125 -15.429688 4.8125 -13.828125 C 4.8125 -12.222656 5.101562 -10.722656 5.6875 -9.328125 C 6.269531 -7.929688 7.050781 -6.71875 8.03125 -5.6875 C 9.019531 -4.65625 10.195312 -3.84375 11.5625 -3.25 C 12.9375 -2.664062 14.414062 -2.375 16 -2.375 C 17.550781 -2.375 19.007812 -2.664062 20.375 -3.25 C 21.75 -3.84375 22.929688 -4.65625 23.921875 -5.6875 C 24.910156 -6.71875 25.691406 -7.929688 26.265625 -9.328125 C 26.847656 -10.722656 27.140625 -12.222656 27.140625 -13.828125 Z M 27.140625 -13.828125 "/></g></g><g style="fill:#ffffff;fill-opacity:1;"><g transform="translate(140.768707, 212.351833)"><path style="stroke:none" d="M 2.484375 0 L 2.484375 -19.796875 L 5.40625 -19.796875 L 5.40625 -17.609375 C 6.144531 -18.453125 7 -19.09375 7.96875 -19.53125 C 8.945312 -19.96875 10.03125 -20.1875 11.21875 -20.1875 C 12.582031 -20.1875 13.8125 -19.863281 14.90625 -19.21875 C 16 -18.570312 16.847656 -17.695312 17.453125 -16.59375 C 18.273438 -17.800781 19.257812 -18.703125 20.40625 -19.296875 C 21.550781 -19.890625 22.832031 -20.1875 24.25 -20.1875 C 26.382812 -20.1875 28.128906 -19.472656 29.484375 -18.046875 C 30.835938 -16.628906 31.515625 -14.785156 31.515625 -12.515625 L 31.515625 0 L 28.640625 0 L 28.640625 -11.921875 C 28.640625 -13.660156 28.175781 -15.039062 27.25 -16.0625 C 26.332031 -17.09375 25.082031 -17.609375 23.5 -17.609375 C 22.425781 -17.609375 21.441406 -17.332031 20.546875 -16.78125 C 19.648438 -16.226562 18.882812 -15.425781 18.25 -14.375 C 18.300781 -14.082031 18.347656 -13.785156 18.390625 -13.484375 C 18.429688 -13.179688 18.453125 -12.859375 18.453125 -12.515625 L 18.453125 0 L 15.5625 0 L 15.5625 -11.921875 C 15.5625 -13.660156 15.097656 -15.039062 14.171875 -16.0625 C 13.253906 -17.09375 12.019531 -17.609375 10.46875 -17.609375 C 9.414062 -17.609375 8.457031 -17.363281 7.59375 -16.875 C 6.738281 -16.394531 6.007812 -15.679688 5.40625 -14.734375 L 5.40625 0 Z M 2.484375 0 "/></g></g><g style="fill:#ffffff;fill-opacity:1;"><g transform="translate(174.69888, 212.351833)"><path style="stroke:none" d="M 19.15625 -2.09375 C 18.050781 -1.28125 16.898438 -0.664062 15.703125 -0.25 C 14.503906 0.15625 13.191406 0.359375 11.765625 0.359375 C 10.347656 0.359375 9.015625 0.0976562 7.765625 -0.421875 C 6.515625 -0.953125 5.429688 -1.675781 4.515625 -2.59375 C 3.609375 -3.519531 2.890625 -4.609375 2.359375 -5.859375 C 1.835938 -7.109375 1.578125 -8.460938 1.578125 -9.921875 C 1.578125 -11.335938 1.832031 -12.664062 2.34375 -13.90625 C 2.863281 -15.144531 3.554688 -16.222656 4.421875 -17.140625 C 5.296875 -18.066406 6.332031 -18.789062 7.53125 -19.3125 C 8.726562 -19.84375 10 -20.109375 11.34375 -20.109375 C 12.65625 -20.109375 13.882812 -19.84375 15.03125 -19.3125 C 16.175781 -18.789062 17.160156 -18.066406 17.984375 -17.140625 C 18.816406 -16.222656 19.476562 -15.144531 19.96875 -13.90625 C 20.457031 -12.664062 20.703125 -11.335938 20.703125 -9.921875 L 20.703125 -9 L 4.46875 -9 C 4.675781 -7.050781 5.476562 -5.429688 6.875 -4.140625 C 8.269531 -2.859375 9.941406 -2.21875 11.890625 -2.21875 C 12.921875 -2.21875 13.921875 -2.375 14.890625 -2.6875 C 15.867188 -3 16.6875 -3.445312 17.34375 -4.03125 Z M 11.25 -17.53125 C 9.539062 -17.53125 8.0625 -16.953125 6.8125 -15.796875 C 5.5625 -14.640625 4.804688 -13.15625 4.546875 -11.34375 L 17.78125 -11.34375 C 17.507812 -13.070312 16.757812 -14.535156 15.53125 -15.734375 C 14.3125 -16.929688 12.882812 -17.53125 11.25 -17.53125 Z M 11.25 -17.53125 "/></g></g><g style="fill:#ffffff;fill-opacity:1;"><g transform="translate(196.976668, 212.351833)"><path style="stroke:none" d="M 2.484375 0 L 2.484375 -19.796875 L 5.40625 -19.796875 L 5.40625 -17.453125 C 6.175781 -18.347656 7.085938 -19.023438 8.140625 -19.484375 C 9.191406 -19.953125 10.363281 -20.1875 11.65625 -20.1875 C 13.894531 -20.1875 15.722656 -19.472656 17.140625 -18.046875 C 18.566406 -16.628906 19.28125 -14.785156 19.28125 -12.515625 L 19.28125 0 L 16.390625 0 L 16.390625 -11.921875 C 16.390625 -13.660156 15.890625 -15.039062 14.890625 -16.0625 C 13.890625 -17.09375 12.546875 -17.609375 10.859375 -17.609375 C 9.671875 -17.609375 8.609375 -17.34375 7.671875 -16.8125 C 6.742188 -16.289062 5.988281 -15.546875 5.40625 -14.578125 L 5.40625 0 Z M 2.484375 0 "/></g></g><g style="fill:#ffffff;fill-opacity:1;"><g transform="translate(218.661964, 212.351833)"><path style="stroke:none" d="M 4.9375 -4.421875 L 4.9375 -17.296875 L 0.671875 -17.296875 L 0.671875 -19.796875 L 4.9375 -19.796875 L 4.9375 -24.8125 L 7.828125 -25.5625 L 7.828125 -19.796875 L 13.78125 -19.796875 L 13.78125 -17.296875 L 7.828125 -17.296875 L 7.828125 -5.171875 C 7.828125 -4.117188 8.0625 -3.363281 8.53125 -2.90625 C 9.007812 -2.445312 9.785156 -2.21875 10.859375 -2.21875 C 11.410156 -2.21875 11.90625 -2.253906 12.34375 -2.328125 C 12.78125 -2.410156 13.25 -2.539062 13.75 -2.71875 L 13.75 -0.15625 C 13.25 0.03125 12.6875 0.160156 12.0625 0.234375 C 11.445312 0.316406 10.847656 0.359375 10.265625 0.359375 C 8.554688 0.359375 7.238281 -0.046875 6.3125 -0.859375 C 5.394531 -1.679688 4.9375 -2.867188 4.9375 -4.421875 Z M 4.9375 -4.421875 "/></g></g><g style="fill:#ffffff;fill-opacity:1;"><g transform="translate(233.079329, 212.351833)"><path style="stroke:none" d="M 3.953125 -23.578125 C 3.421875 -23.578125 2.957031 -23.773438 2.5625 -24.171875 C 2.164062 -24.566406 1.96875 -25.03125 1.96875 -25.5625 C 1.96875 -26.113281 2.164062 -26.578125 2.5625 -26.953125 C 2.957031 -27.335938 3.421875 -27.53125 3.953125 -27.53125 C 4.503906 -27.53125 4.96875 -27.335938 5.34375 -26.953125 C 5.726562 -26.578125 5.921875 -26.113281 5.921875 -25.5625 C 5.921875 -25.03125 5.726562 -24.566406 5.34375 -24.171875 C 4.96875 -23.773438 4.503906 -23.578125 3.953125 -23.578125 Z M 5.40625 -19.796875 L 5.40625 0 L 2.484375 0 L 2.484375 -19.796875 Z M 5.40625 -19.796875 "/></g></g><g style="fill:#ffffff;fill-opacity:1;"><g transform="translate(240.979253, 212.351833)"><path style="stroke:none" d="M 11.734375 -2.296875 C 12.785156 -2.296875 13.796875 -2.503906 14.765625 -2.921875 C 15.742188 -3.347656 16.65625 -3.96875 17.5 -4.78125 L 19.3125 -2.796875 C 18.257812 -1.796875 17.070312 -1.019531 15.75 -0.46875 C 14.4375 0.0820312 13.070312 0.359375 11.65625 0.359375 C 10.257812 0.359375 8.941406 0.0976562 7.703125 -0.421875 C 6.460938 -0.953125 5.394531 -1.675781 4.5 -2.59375 C 3.601562 -3.519531 2.890625 -4.613281 2.359375 -5.875 C 1.835938 -7.144531 1.578125 -8.492188 1.578125 -9.921875 C 1.578125 -11.335938 1.835938 -12.671875 2.359375 -13.921875 C 2.890625 -15.171875 3.601562 -16.253906 4.5 -17.171875 C 5.394531 -18.097656 6.460938 -18.832031 7.703125 -19.375 C 8.941406 -19.914062 10.257812 -20.1875 11.65625 -20.1875 C 13.070312 -20.1875 14.457031 -19.910156 15.8125 -19.359375 C 17.175781 -18.804688 18.367188 -18.039062 19.390625 -17.0625 L 17.53125 -14.9375 C 16.75 -15.75 15.84375 -16.378906 14.8125 -16.828125 C 13.78125 -17.273438 12.738281 -17.5 11.6875 -17.5 C 10.6875 -17.5 9.738281 -17.300781 8.84375 -16.90625 C 7.945312 -16.507812 7.175781 -15.96875 6.53125 -15.28125 C 5.882812 -14.601562 5.378906 -13.800781 5.015625 -12.875 C 4.648438 -11.957031 4.46875 -10.972656 4.46875 -9.921875 C 4.46875 -8.835938 4.65625 -7.828125 5.03125 -6.890625 C 5.414062 -5.953125 5.929688 -5.144531 6.578125 -4.46875 C 7.222656 -3.800781 7.992188 -3.269531 8.890625 -2.875 C 9.785156 -2.488281 10.734375 -2.296875 11.734375 -2.296875 Z M 11.734375 -2.296875 "/></g></g><g style="fill:#ffffff;fill-opacity:1;"><g transform="translate(261.242562, 212.351833)"><path style="stroke:none" d="M 0.46875 -2.71875 L 2.25 -4.625 C 3.144531 -3.78125 4.148438 -3.125 5.265625 -2.65625 C 6.390625 -2.195312 7.53125 -1.96875 8.6875 -1.96875 C 10.269531 -1.96875 11.5625 -2.296875 12.5625 -2.953125 C 13.5625 -3.617188 14.0625 -4.476562 14.0625 -5.53125 C 14.0625 -6.375 13.765625 -7.035156 13.171875 -7.515625 C 12.578125 -8.003906 11.648438 -8.34375 10.390625 -8.53125 L 6.953125 -9 C 4.972656 -9.289062 3.503906 -9.878906 2.546875 -10.765625 C 1.585938 -11.648438 1.109375 -12.84375 1.109375 -14.34375 C 1.109375 -16 1.804688 -17.375 3.203125 -18.46875 C 4.597656 -19.5625 6.375 -20.109375 8.53125 -20.109375 C 9.957031 -20.109375 11.304688 -19.894531 12.578125 -19.46875 C 13.859375 -19.050781 15.101562 -18.394531 16.3125 -17.5 L 14.765625 -15.53125 C 13.660156 -16.257812 12.585938 -16.804688 11.546875 -17.171875 C 10.515625 -17.546875 9.457031 -17.734375 8.375 -17.734375 C 7.03125 -17.734375 5.929688 -17.429688 5.078125 -16.828125 C 4.222656 -16.222656 3.796875 -15.429688 3.796875 -14.453125 C 3.796875 -13.609375 4.082031 -12.957031 4.65625 -12.5 C 5.238281 -12.039062 6.175781 -11.71875 7.46875 -11.53125 L 10.90625 -11.0625 C 12.875 -10.800781 14.351562 -10.210938 15.34375 -9.296875 C 16.332031 -8.390625 16.828125 -7.1875 16.828125 -5.6875 C 16.828125 -4.84375 16.625 -4.046875 16.21875 -3.296875 C 15.8125 -2.546875 15.242188 -1.898438 14.515625 -1.359375 C 13.796875 -0.816406 12.945312 -0.394531 11.96875 -0.09375 C 10.988281 0.207031 9.9375 0.359375 8.8125 0.359375 C 7.175781 0.359375 5.640625 0.0859375 4.203125 -0.453125 C 2.765625 -0.992188 1.519531 -1.75 0.46875 -2.71875 Z M 0.46875 -2.71875 "/></g></g><g style="fill:#ffffff;fill-opacity:1;"><g transform="translate(201.691516, 229.673639)"><path style="stroke:none" d="M 3.390625 -0.40625 L 1.203125 -4.90625 L 1.203125 0 L 0.625 0 L 0.625 -5.625 L 1.484375 -5.625 L 3.40625 -1.625 L 5.3125 -5.625 L 6.1875 -5.625 L 6.1875 0 L 5.59375 0 L 5.59375 -4.921875 Z M 3.390625 -0.40625 "/></g></g><g style="fill:#ffffff;fill-opacity:1;"><g transform="translate(208.497636, 229.673639)"><path style="stroke:none" d="M 0.796875 -4.796875 C 0.691406 -4.796875 0.597656 -4.832031 0.515625 -4.90625 C 0.441406 -4.988281 0.40625 -5.085938 0.40625 -5.203125 C 0.40625 -5.304688 0.441406 -5.394531 0.515625 -5.46875 C 0.597656 -5.550781 0.691406 -5.59375 0.796875 -5.59375 C 0.910156 -5.59375 1.003906 -5.550781 1.078125 -5.46875 C 1.160156 -5.394531 1.203125 -5.304688 1.203125 -5.203125 C 1.203125 -5.085938 1.160156 -4.988281 1.078125 -4.90625 C 1.003906 -4.832031 0.910156 -4.796875 0.796875 -4.796875 Z M 1.09375 -4.03125 L 1.09375 0 L 0.5 0 L 0.5 -4.03125 Z M 1.09375 -4.03125 "/></g></g><g style="fill:#ffffff;fill-opacity:1;"><g transform="translate(210.104752, 229.673639)"><path style="stroke:none" d="M 0.5 0 L 0.5 -4.03125 L 1.09375 -4.03125 L 1.09375 -3.546875 C 1.25 -3.734375 1.429688 -3.875 1.640625 -3.96875 C 1.859375 -4.0625 2.101562 -4.109375 2.375 -4.109375 C 2.820312 -4.109375 3.191406 -3.960938 3.484375 -3.671875 C 3.773438 -3.378906 3.921875 -3.003906 3.921875 -2.546875 L 3.921875 0 L 3.328125 0 L 3.328125 -2.421875 C 3.328125 -2.773438 3.222656 -3.054688 3.015625 -3.265625 C 2.816406 -3.472656 2.546875 -3.578125 2.203125 -3.578125 C 1.960938 -3.578125 1.75 -3.523438 1.5625 -3.421875 C 1.375 -3.316406 1.21875 -3.164062 1.09375 -2.96875 L 1.09375 0 Z M 0.5 0 "/></g></g><g style="fill:#ffffff;fill-opacity:1;"><g transform="translate(214.51627, 229.673639)"><path style="stroke:none" d="M 0.796875 -4.796875 C 0.691406 -4.796875 0.597656 -4.832031 0.515625 -4.90625 C 0.441406 -4.988281 0.40625 -5.085938 0.40625 -5.203125 C 0.40625 -5.304688 0.441406 -5.394531 0.515625 -5.46875 C 0.597656 -5.550781 0.691406 -5.59375 0.796875 -5.59375 C 0.910156 -5.59375 1.003906 -5.550781 1.078125 -5.46875 C 1.160156 -5.394531 1.203125 -5.304688 1.203125 -5.203125 C 1.203125 -5.085938 1.160156 -4.988281 1.078125 -4.90625 C 1.003906 -4.832031 0.910156 -4.796875 0.796875 -4.796875 Z M 1.09375 -4.03125 L 1.09375 0 L 0.5 0 L 0.5 -4.03125 Z M 1.09375 -4.03125 "/></g></g><g style="fill:#ffffff;fill-opacity:1;"><g transform="translate(216.123386, 229.673639)"><path style="stroke:none" d="M 0.5 0 L 0.5 -4.03125 L 1.09375 -4.03125 L 1.09375 -3.546875 C 1.25 -3.734375 1.429688 -3.875 1.640625 -3.96875 C 1.859375 -4.0625 2.101562 -4.109375 2.375 -4.109375 C 2.820312 -4.109375 3.191406 -3.960938 3.484375 -3.671875 C 3.773438 -3.378906 3.921875 -3.003906 3.921875 -2.546875 L 3.921875 0 L 3.328125 0 L 3.328125 -2.421875 C 3.328125 -2.773438 3.222656 -3.054688 3.015625 -3.265625 C 2.816406 -3.472656 2.546875 -3.578125 2.203125 -3.578125 C 1.960938 -3.578125 1.75 -3.523438 1.5625 -3.421875 C 1.375 -3.316406 1.21875 -3.164062 1.09375 -2.96875 L 1.09375 0 Z M 0.5 0 "/></g></g><g style="fill:#ffffff;fill-opacity:1;"><g transform="translate(220.534905, 229.673639)"><path style="stroke:none" d="M 2.328125 0.03125 C 2.046875 0.03125 1.785156 -0.0195312 1.546875 -0.125 C 1.304688 -0.238281 1.09375 -0.382812 0.90625 -0.5625 C 0.726562 -0.75 0.585938 -0.96875 0.484375 -1.21875 C 0.378906 -1.46875 0.328125 -1.738281 0.328125 -2.03125 C 0.328125 -2.320312 0.378906 -2.59375 0.484375 -2.84375 C 0.585938 -3.09375 0.726562 -3.3125 0.90625 -3.5 C 1.09375 -3.6875 1.304688 -3.832031 1.546875 -3.9375 C 1.796875 -4.039062 2.0625 -4.09375 2.34375 -4.09375 C 2.570312 -4.09375 2.796875 -4.050781 3.015625 -3.96875 C 3.234375 -3.882812 3.429688 -3.769531 3.609375 -3.625 L 3.609375 -4.03125 L 4.203125 -4.03125 L 4.203125 0.09375 C 4.203125 0.613281 4.050781 1.007812 3.75 1.28125 C 3.445312 1.550781 3.019531 1.6875 2.46875 1.6875 C 2.1875 1.6875 1.910156 1.648438 1.640625 1.578125 C 1.367188 1.515625 1.117188 1.414062 0.890625 1.28125 L 1.15625 0.8125 C 1.394531 0.9375 1.613281 1.03125 1.8125 1.09375 C 2.019531 1.15625 2.226562 1.1875 2.4375 1.1875 C 2.820312 1.1875 3.113281 1.09375 3.3125 0.90625 C 3.507812 0.726562 3.609375 0.460938 3.609375 0.109375 L 3.609375 -0.4375 C 3.421875 -0.28125 3.21875 -0.160156 3 -0.078125 C 2.789062 -0.00390625 2.566406 0.03125 2.328125 0.03125 Z M 0.90625 -2.03125 C 0.90625 -1.8125 0.941406 -1.609375 1.015625 -1.421875 C 1.085938 -1.234375 1.191406 -1.070312 1.328125 -0.9375 C 1.460938 -0.800781 1.617188 -0.691406 1.796875 -0.609375 C 1.984375 -0.523438 2.175781 -0.484375 2.375 -0.484375 C 2.632812 -0.484375 2.867188 -0.53125 3.078125 -0.625 C 3.296875 -0.726562 3.472656 -0.867188 3.609375 -1.046875 L 3.609375 -3.015625 C 3.472656 -3.191406 3.296875 -3.328125 3.078125 -3.421875 C 2.859375 -3.515625 2.625 -3.5625 2.375 -3.5625 C 2.164062 -3.5625 1.972656 -3.519531 1.796875 -3.4375 C 1.617188 -3.363281 1.460938 -3.257812 1.328125 -3.125 C 1.191406 -2.988281 1.085938 -2.828125 1.015625 -2.640625 C 0.941406 -2.453125 0.90625 -2.25 0.90625 -2.03125 Z M 0.90625 -2.03125 "/></g></g><g style="fill:#ffffff;fill-opacity:1;"><g transform="translate(225.243737, 229.673639)"><path style="stroke:none" d=""/></g></g><g style="fill:#ffffff;fill-opacity:1;"><g transform="translate(226.97138, 229.673639)"><path style="stroke:none" d="M 0.140625 -5.0625 L 0.140625 -5.625 L 4.8125 -5.625 L 4.8125 -5.0625 L 2.78125 -5.0625 L 2.78125 0 L 2.171875 0 L 2.171875 -5.0625 Z M 0.140625 -5.0625 "/></g></g><g style="fill:#ffffff;fill-opacity:1;"><g transform="translate(231.929319, 229.673639)"><path style="stroke:none" d="M 3.890625 -0.421875 C 3.671875 -0.253906 3.4375 -0.128906 3.1875 -0.046875 C 2.945312 0.0351562 2.679688 0.078125 2.390625 0.078125 C 2.097656 0.078125 1.828125 0.0234375 1.578125 -0.078125 C 1.328125 -0.191406 1.109375 -0.34375 0.921875 -0.53125 C 0.734375 -0.71875 0.585938 -0.9375 0.484375 -1.1875 C 0.378906 -1.445312 0.328125 -1.722656 0.328125 -2.015625 C 0.328125 -2.304688 0.378906 -2.578125 0.484375 -2.828125 C 0.585938 -3.078125 0.726562 -3.296875 0.90625 -3.484375 C 1.082031 -3.671875 1.289062 -3.816406 1.53125 -3.921875 C 1.769531 -4.035156 2.03125 -4.09375 2.3125 -4.09375 C 2.570312 -4.09375 2.816406 -4.035156 3.046875 -3.921875 C 3.285156 -3.816406 3.488281 -3.671875 3.65625 -3.484375 C 3.820312 -3.296875 3.953125 -3.078125 4.046875 -2.828125 C 4.148438 -2.578125 4.203125 -2.304688 4.203125 -2.015625 L 4.203125 -1.828125 L 0.90625 -1.828125 C 0.945312 -1.429688 1.109375 -1.101562 1.390625 -0.84375 C 1.679688 -0.582031 2.023438 -0.453125 2.421875 -0.453125 C 2.628906 -0.453125 2.832031 -0.484375 3.03125 -0.546875 C 3.226562 -0.609375 3.394531 -0.695312 3.53125 -0.8125 Z M 2.28125 -3.5625 C 1.9375 -3.5625 1.632812 -3.441406 1.375 -3.203125 C 1.125 -2.972656 0.972656 -2.675781 0.921875 -2.3125 L 3.609375 -2.3125 C 3.554688 -2.65625 3.40625 -2.945312 3.15625 -3.1875 C 2.90625 -3.4375 2.613281 -3.5625 2.28125 -3.5625 Z M 2.28125 -3.5625 "/></g></g><g style="fill:#ffffff;fill-opacity:1;"><g transform="translate(236.461375, 229.673639)"><path style="stroke:none" d="M 2.390625 -0.46875 C 2.597656 -0.46875 2.800781 -0.507812 3 -0.59375 C 3.195312 -0.675781 3.382812 -0.800781 3.5625 -0.96875 L 3.921875 -0.5625 C 3.710938 -0.363281 3.472656 -0.207031 3.203125 -0.09375 C 2.929688 0.0195312 2.65625 0.078125 2.375 0.078125 C 2.082031 0.078125 1.8125 0.0234375 1.5625 -0.078125 C 1.3125 -0.191406 1.09375 -0.34375 0.90625 -0.53125 C 0.726562 -0.71875 0.585938 -0.9375 0.484375 -1.1875 C 0.378906 -1.445312 0.328125 -1.722656 0.328125 -2.015625 C 0.328125 -2.304688 0.378906 -2.578125 0.484375 -2.828125 C 0.585938 -3.085938 0.726562 -3.3125 0.90625 -3.5 C 1.09375 -3.6875 1.3125 -3.832031 1.5625 -3.9375 C 1.8125 -4.050781 2.082031 -4.109375 2.375 -4.109375 C 2.65625 -4.109375 2.929688 -4.050781 3.203125 -3.9375 C 3.484375 -3.820312 3.726562 -3.664062 3.9375 -3.46875 L 3.5625 -3.03125 C 3.40625 -3.195312 3.222656 -3.328125 3.015625 -3.421875 C 2.804688 -3.515625 2.59375 -3.5625 2.375 -3.5625 C 2.175781 -3.5625 1.984375 -3.519531 1.796875 -3.4375 C 1.617188 -3.351562 1.460938 -3.242188 1.328125 -3.109375 C 1.191406 -2.972656 1.085938 -2.8125 1.015625 -2.625 C 0.941406 -2.4375 0.90625 -2.234375 0.90625 -2.015625 C 0.90625 -1.796875 0.941406 -1.585938 1.015625 -1.390625 C 1.097656 -1.203125 1.203125 -1.039062 1.328125 -0.90625 C 1.460938 -0.769531 1.617188 -0.660156 1.796875 -0.578125 C 1.984375 -0.503906 2.179688 -0.46875 2.390625 -0.46875 Z M 2.390625 -0.46875 "/></g></g><g style="fill:#ffffff;fill-opacity:1;"><g transform="translate(240.583611, 229.673639)"><path style="stroke:none" d="M 0.5 0 L 0.5 -5.625 L 1.09375 -5.765625 L 1.09375 -3.546875 C 1.25 -3.734375 1.429688 -3.875 1.640625 -3.96875 C 1.859375 -4.0625 2.101562 -4.109375 2.375 -4.109375 C 2.820312 -4.109375 3.191406 -3.960938 3.484375 -3.671875 C 3.773438 -3.378906 3.921875 -3.003906 3.921875 -2.546875 L 3.921875 0 L 3.328125 0 L 3.328125 -2.421875 C 3.328125 -2.773438 3.222656 -3.054688 3.015625 -3.265625 C 2.816406 -3.472656 2.546875 -3.578125 2.203125 -3.578125 C 1.960938 -3.578125 1.75 -3.523438 1.5625 -3.421875 C 1.375 -3.316406 1.21875 -3.164062 1.09375 -2.96875 L 1.09375 0 Z M 0.5 0 "/></g></g><g style="fill:#ffffff;fill-opacity:1;"><g transform="translate(244.995129, 229.673639)"><path style="stroke:none" d="M 0.5 0 L 0.5 -4.03125 L 1.09375 -4.03125 L 1.09375 -3.546875 C 1.25 -3.734375 1.429688 -3.875 1.640625 -3.96875 C 1.859375 -4.0625 2.101562 -4.109375 2.375 -4.109375 C 2.820312 -4.109375 3.191406 -3.960938 3.484375 -3.671875 C 3.773438 -3.378906 3.921875 -3.003906 3.921875 -2.546875 L 3.921875 0 L 3.328125 0 L 3.328125 -2.421875 C 3.328125 -2.773438 3.222656 -3.054688 3.015625 -3.265625 C 2.816406 -3.472656 2.546875 -3.578125 2.203125 -3.578125 C 1.960938 -3.578125 1.75 -3.523438 1.5625 -3.421875 C 1.375 -3.316406 1.21875 -3.164062 1.09375 -2.96875 L 1.09375 0 Z M 0.5 0 "/></g></g><g style="fill:#ffffff;fill-opacity:1;"><g transform="translate(249.406647, 229.673639)"><path style="stroke:none" d="M 0.328125 -2.015625 C 0.328125 -2.304688 0.378906 -2.578125 0.484375 -2.828125 C 0.585938 -3.085938 0.734375 -3.3125 0.921875 -3.5 C 1.109375 -3.6875 1.328125 -3.832031 1.578125 -3.9375 C 1.828125 -4.050781 2.09375 -4.109375 2.375 -4.109375 C 2.65625 -4.109375 2.921875 -4.050781 3.171875 -3.9375 C 3.421875 -3.832031 3.640625 -3.6875 3.828125 -3.5 C 4.015625 -3.3125 4.160156 -3.085938 4.265625 -2.828125 C 4.367188 -2.578125 4.421875 -2.304688 4.421875 -2.015625 C 4.421875 -1.722656 4.367188 -1.445312 4.265625 -1.1875 C 4.160156 -0.925781 4.015625 -0.703125 3.828125 -0.515625 C 3.640625 -0.328125 3.421875 -0.179688 3.171875 -0.078125 C 2.921875 0.0234375 2.65625 0.078125 2.375 0.078125 C 2.09375 0.078125 1.828125 0.0234375 1.578125 -0.078125 C 1.328125 -0.179688 1.109375 -0.328125 0.921875 -0.515625 C 0.734375 -0.703125 0.585938 -0.925781 0.484375 -1.1875 C 0.378906 -1.445312 0.328125 -1.722656 0.328125 -2.015625 Z M 2.375 -0.453125 C 2.582031 -0.453125 2.773438 -0.488281 2.953125 -0.5625 C 3.128906 -0.644531 3.28125 -0.753906 3.40625 -0.890625 C 3.539062 -1.035156 3.644531 -1.203125 3.71875 -1.390625 C 3.800781 -1.585938 3.84375 -1.796875 3.84375 -2.015625 C 3.84375 -2.234375 3.800781 -2.4375 3.71875 -2.625 C 3.644531 -2.820312 3.539062 -2.988281 3.40625 -3.125 C 3.28125 -3.257812 3.128906 -3.367188 2.953125 -3.453125 C 2.773438 -3.535156 2.582031 -3.578125 2.375 -3.578125 C 2.175781 -3.578125 1.984375 -3.535156 1.796875 -3.453125 C 1.617188 -3.367188 1.460938 -3.257812 1.328125 -3.125 C 1.203125 -2.988281 1.097656 -2.820312 1.015625 -2.625 C 0.941406 -2.4375 0.90625 -2.234375 0.90625 -2.015625 C 0.90625 -1.796875 0.941406 -1.585938 1.015625 -1.390625 C 1.085938 -1.203125 1.191406 -1.035156 1.328125 -0.890625 C 1.460938 -0.753906 1.617188 -0.644531 1.796875 -0.5625 C 1.984375 -0.488281 2.175781 -0.453125 2.375 -0.453125 Z M 2.375 -0.453125 "/></g></g><g style="fill:#ffffff;fill-opacity:1;"><g transform="translate(254.155665, 229.673639)"><path style="stroke:none" d="M 1.09375 -5.765625 L 1.09375 0 L 0.5 0 L 0.5 -5.625 Z M 1.09375 -5.765625 "/></g></g><g style="fill:#ffffff;fill-opacity:1;"><g transform="translate(255.762781, 229.673639)"><path style="stroke:none" d="M 0.328125 -2.015625 C 0.328125 -2.304688 0.378906 -2.578125 0.484375 -2.828125 C 0.585938 -3.085938 0.734375 -3.3125 0.921875 -3.5 C 1.109375 -3.6875 1.328125 -3.832031 1.578125 -3.9375 C 1.828125 -4.050781 2.09375 -4.109375 2.375 -4.109375 C 2.65625 -4.109375 2.921875 -4.050781 3.171875 -3.9375 C 3.421875 -3.832031 3.640625 -3.6875 3.828125 -3.5 C 4.015625 -3.3125 4.160156 -3.085938 4.265625 -2.828125 C 4.367188 -2.578125 4.421875 -2.304688 4.421875 -2.015625 C 4.421875 -1.722656 4.367188 -1.445312 4.265625 -1.1875 C 4.160156 -0.925781 4.015625 -0.703125 3.828125 -0.515625 C 3.640625 -0.328125 3.421875 -0.179688 3.171875 -0.078125 C 2.921875 0.0234375 2.65625 0.078125 2.375 0.078125 C 2.09375 0.078125 1.828125 0.0234375 1.578125 -0.078125 C 1.328125 -0.179688 1.109375 -0.328125 0.921875 -0.515625 C 0.734375 -0.703125 0.585938 -0.925781 0.484375 -1.1875 C 0.378906 -1.445312 0.328125 -1.722656 0.328125 -2.015625 Z M 2.375 -0.453125 C 2.582031 -0.453125 2.773438 -0.488281 2.953125 -0.5625 C 3.128906 -0.644531 3.28125 -0.753906 3.40625 -0.890625 C 3.539062 -1.035156 3.644531 -1.203125 3.71875 -1.390625 C 3.800781 -1.585938 3.84375 -1.796875 3.84375 -2.015625 C 3.84375 -2.234375 3.800781 -2.4375 3.71875 -2.625 C 3.644531 -2.820312 3.539062 -2.988281 3.40625 -3.125 C 3.28125 -3.257812 3.128906 -3.367188 2.953125 -3.453125 C 2.773438 -3.535156 2.582031 -3.578125 2.375 -3.578125 C 2.175781 -3.578125 1.984375 -3.535156 1.796875 -3.453125 C 1.617188 -3.367188 1.460938 -3.257812 1.328125 -3.125 C 1.203125 -2.988281 1.097656 -2.820312 1.015625 -2.625 C 0.941406 -2.4375 0.90625 -2.234375 0.90625 -2.015625 C 0.90625 -1.796875 0.941406 -1.585938 1.015625 -1.390625 C 1.085938 -1.203125 1.191406 -1.035156 1.328125 -0.890625 C 1.460938 -0.753906 1.617188 -0.644531 1.796875 -0.5625 C 1.984375 -0.488281 2.175781 -0.453125 2.375 -0.453125 Z M 2.375 -0.453125 "/></g></g><g style="fill:#ffffff;fill-opacity:1;"><g transform="translate(260.511799, 229.673639)"><path style="stroke:none" d="M 2.328125 0.03125 C 2.046875 0.03125 1.785156 -0.0195312 1.546875 -0.125 C 1.304688 -0.238281 1.09375 -0.382812 0.90625 -0.5625 C 0.726562 -0.75 0.585938 -0.96875 0.484375 -1.21875 C 0.378906 -1.46875 0.328125 -1.738281 0.328125 -2.03125 C 0.328125 -2.320312 0.378906 -2.59375 0.484375 -2.84375 C 0.585938 -3.09375 0.726562 -3.3125 0.90625 -3.5 C 1.09375 -3.6875 1.304688 -3.832031 1.546875 -3.9375 C 1.796875 -4.039062 2.0625 -4.09375 2.34375 -4.09375 C 2.570312 -4.09375 2.796875 -4.050781 3.015625 -3.96875 C 3.234375 -3.882812 3.429688 -3.769531 3.609375 -3.625 L 3.609375 -4.03125 L 4.203125 -4.03125 L 4.203125 0.09375 C 4.203125 0.613281 4.050781 1.007812 3.75 1.28125 C 3.445312 1.550781 3.019531 1.6875 2.46875 1.6875 C 2.1875 1.6875 1.910156 1.648438 1.640625 1.578125 C 1.367188 1.515625 1.117188 1.414062 0.890625 1.28125 L 1.15625 0.8125 C 1.394531 0.9375 1.613281 1.03125 1.8125 1.09375 C 2.019531 1.15625 2.226562 1.1875 2.4375 1.1875 C 2.820312 1.1875 3.113281 1.09375 3.3125 0.90625 C 3.507812 0.726562 3.609375 0.460938 3.609375 0.109375 L 3.609375 -0.4375 C 3.421875 -0.28125 3.21875 -0.160156 3 -0.078125 C 2.789062 -0.00390625 2.566406 0.03125 2.328125 0.03125 Z M 0.90625 -2.03125 C 0.90625 -1.8125 0.941406 -1.609375 1.015625 -1.421875 C 1.085938 -1.234375 1.191406 -1.070312 1.328125 -0.9375 C 1.460938 -0.800781 1.617188 -0.691406 1.796875 -0.609375 C 1.984375 -0.523438 2.175781 -0.484375 2.375 -0.484375 C 2.632812 -0.484375 2.867188 -0.53125 3.078125 -0.625 C 3.296875 -0.726562 3.472656 -0.867188 3.609375 -1.046875 L 3.609375 -3.015625 C 3.472656 -3.191406 3.296875 -3.328125 3.078125 -3.421875 C 2.859375 -3.515625 2.625 -3.5625 2.375 -3.5625 C 2.164062 -3.5625 1.972656 -3.519531 1.796875 -3.4375 C 1.617188 -3.363281 1.460938 -3.257812 1.328125 -3.125 C 1.191406 -2.988281 1.085938 -2.828125 1.015625 -2.640625 C 0.941406 -2.453125 0.90625 -2.25 0.90625 -2.03125 Z M 0.90625 -2.03125 "/></g></g><g style="fill:#ffffff;fill-opacity:1;"><g transform="translate(265.220631, 229.673639)"><path style="stroke:none" d="M 0.796875 -4.796875 C 0.691406 -4.796875 0.597656 -4.832031 0.515625 -4.90625 C 0.441406 -4.988281 0.40625 -5.085938 0.40625 -5.203125 C 0.40625 -5.304688 0.441406 -5.394531 0.515625 -5.46875 C 0.597656 -5.550781 0.691406 -5.59375 0.796875 -5.59375 C 0.910156 -5.59375 1.003906 -5.550781 1.078125 -5.46875 C 1.160156 -5.394531 1.203125 -5.304688 1.203125 -5.203125 C 1.203125 -5.085938 1.160156 -4.988281 1.078125 -4.90625 C 1.003906 -4.832031 0.910156 -4.796875 0.796875 -4.796875 Z M 1.09375 -4.03125 L 1.09375 0 L 0.5 0 L 0.5 -4.03125 Z M 1.09375 -4.03125 "/></g></g><g style="fill:#ffffff;fill-opacity:1;"><g transform="translate(266.827747, 229.673639)"><path style="stroke:none" d="M 3.890625 -0.421875 C 3.671875 -0.253906 3.4375 -0.128906 3.1875 -0.046875 C 2.945312 0.0351562 2.679688 0.078125 2.390625 0.078125 C 2.097656 0.078125 1.828125 0.0234375 1.578125 -0.078125 C 1.328125 -0.191406 1.109375 -0.34375 0.921875 -0.53125 C 0.734375 -0.71875 0.585938 -0.9375 0.484375 -1.1875 C 0.378906 -1.445312 0.328125 -1.722656 0.328125 -2.015625 C 0.328125 -2.304688 0.378906 -2.578125 0.484375 -2.828125 C 0.585938 -3.078125 0.726562 -3.296875 0.90625 -3.484375 C 1.082031 -3.671875 1.289062 -3.816406 1.53125 -3.921875 C 1.769531 -4.035156 2.03125 -4.09375 2.3125 -4.09375 C 2.570312 -4.09375 2.816406 -4.035156 3.046875 -3.921875 C 3.285156 -3.816406 3.488281 -3.671875 3.65625 -3.484375 C 3.820312 -3.296875 3.953125 -3.078125 4.046875 -2.828125 C 4.148438 -2.578125 4.203125 -2.304688 4.203125 -2.015625 L 4.203125 -1.828125 L 0.90625 -1.828125 C 0.945312 -1.429688 1.109375 -1.101562 1.390625 -0.84375 C 1.679688 -0.582031 2.023438 -0.453125 2.421875 -0.453125 C 2.628906 -0.453125 2.832031 -0.484375 3.03125 -0.546875 C 3.226562 -0.609375 3.394531 -0.695312 3.53125 -0.8125 Z M 2.28125 -3.5625 C 1.9375 -3.5625 1.632812 -3.441406 1.375 -3.203125 C 1.125 -2.972656 0.972656 -2.675781 0.921875 -2.3125 L 3.609375 -2.3125 C 3.554688 -2.65625 3.40625 -2.945312 3.15625 -3.1875 C 2.90625 -3.4375 2.613281 -3.5625 2.28125 -3.5625 Z M 2.28125 -3.5625 "/></g></g><g style="fill:#ffffff;fill-opacity:1;"><g transform="translate(271.359803, 229.673639)"><path style="stroke:none" d="M 0.09375 -0.546875 L 0.453125 -0.9375 C 0.640625 -0.769531 0.84375 -0.640625 1.0625 -0.546875 C 1.289062 -0.453125 1.523438 -0.40625 1.765625 -0.40625 C 2.085938 -0.40625 2.347656 -0.46875 2.546875 -0.59375 C 2.753906 -0.726562 2.859375 -0.90625 2.859375 -1.125 C 2.859375 -1.289062 2.796875 -1.421875 2.671875 -1.515625 C 2.554688 -1.617188 2.367188 -1.691406 2.109375 -1.734375 L 1.40625 -1.828125 C 1.007812 -1.890625 0.710938 -2.007812 0.515625 -2.1875 C 0.316406 -2.363281 0.21875 -2.609375 0.21875 -2.921875 C 0.21875 -3.253906 0.359375 -3.53125 0.640625 -3.75 C 0.929688 -3.976562 1.296875 -4.09375 1.734375 -4.09375 C 2.023438 -4.09375 2.300781 -4.046875 2.5625 -3.953125 C 2.820312 -3.867188 3.070312 -3.738281 3.3125 -3.5625 L 3 -3.15625 C 2.78125 -3.300781 2.5625 -3.410156 2.34375 -3.484375 C 2.132812 -3.566406 1.921875 -3.609375 1.703125 -3.609375 C 1.429688 -3.609375 1.207031 -3.546875 1.03125 -3.421875 C 0.851562 -3.296875 0.765625 -3.132812 0.765625 -2.9375 C 0.765625 -2.769531 0.820312 -2.640625 0.9375 -2.546875 C 1.0625 -2.453125 1.253906 -2.382812 1.515625 -2.34375 L 2.21875 -2.25 C 2.613281 -2.195312 2.910156 -2.078125 3.109375 -1.890625 C 3.316406 -1.703125 3.421875 -1.457031 3.421875 -1.15625 C 3.421875 -0.988281 3.378906 -0.828125 3.296875 -0.671875 C 3.210938 -0.515625 3.097656 -0.378906 2.953125 -0.265625 C 2.804688 -0.160156 2.632812 -0.078125 2.4375 -0.015625 C 2.238281 0.046875 2.023438 0.078125 1.796875 0.078125 C 1.460938 0.078125 1.148438 0.0234375 0.859375 -0.078125 C 0.566406 -0.191406 0.3125 -0.347656 0.09375 -0.546875 Z M 0.09375 -0.546875 "/></g></g><g style="fill:#ffffff;fill-opacity:1;"><g transform="translate(274.94366, 229.673639)"><path style="stroke:none" d="M 0.796875 -0.765625 C 0.910156 -0.765625 1.003906 -0.722656 1.078125 -0.640625 C 1.160156 -0.566406 1.203125 -0.472656 1.203125 -0.359375 C 1.203125 -0.242188 1.160156 -0.144531 1.078125 -0.0625 C 1.003906 0.0078125 0.910156 0.046875 0.796875 0.046875 C 0.679688 0.046875 0.582031 0.0078125 0.5 -0.0625 C 0.425781 -0.144531 0.390625 -0.242188 0.390625 -0.359375 C 0.390625 -0.472656 0.425781 -0.566406 0.5 -0.640625 C 0.582031 -0.722656 0.679688 -0.765625 0.796875 -0.765625 Z M 0.796875 -0.765625 "/></g></g></g></svg>