<svg xmlns="http://www.w3.org/2000/svg" xmlns:xlink="http://www.w3.org/1999/xlink" width="200" zoomAndPan="magnify" viewBox="0 0 150 149.999998" height="200" preserveAspectRatio="xMidYMid meet" version="1.2"><defs><clipPath id="bd04bd285c"><path d="M 10.007812 59.746094 L 35.425781 59.746094 L 35.425781 85.128906 L 10.007812 85.128906 Z M 10.007812 59.746094 "/></clipPath><clipPath id="c903e9349f"><path d="M 13.84375 63.554688 L 31.589844 63.554688 L 31.589844 81.320312 L 13.84375 81.320312 Z M 13.84375 63.554688 "/></clipPath></defs><g id="839f75bfd2"><g clip-rule="nonzero" clip-path="url(#bd04bd285c)"><path style=" stroke:none;fill-rule:nonzero;fill:#000000;fill-opacity:1;" d="M 10.007812 59.746094 L 35.390625 59.746094 L 35.390625 85.128906 L 10.007812 85.128906 Z M 10.007812 59.746094 "/></g><g clip-rule="nonzero" clip-path="url(#c903e9349f)"><path style=" stroke:none;fill-rule:nonzero;fill:#ffffff;fill-opacity:1;" d="M 13.84375 63.554688 L 31.589844 63.554688 L 31.589844 81.296875 L 13.84375 81.296875 Z M 13.84375 63.554688 "/></g><g style="fill:#000000;fill-opacity:1;"><g transform="translate(41.802207, 82.010265)"><path style="stroke:none" d="M 17.015625 -7.78125 C 17.015625 -6.664062 16.804688 -5.613281 16.390625 -4.625 C 15.972656 -3.644531 15.40625 -2.796875 14.6875 -2.078125 C 13.96875 -1.359375 13.117188 -0.789062 12.140625 -0.375 C 11.160156 0.0390625 10.113281 0.25 9 0.25 C 7.894531 0.25 6.847656 0.0390625 5.859375 -0.375 C 4.867188 -0.789062 4.015625 -1.359375 3.296875 -2.078125 C 2.578125 -2.796875 2.007812 -3.644531 1.59375 -4.625 C 1.1875 -5.613281 0.984375 -6.664062 0.984375 -7.78125 C 0.984375 -8.894531 1.1875 -9.941406 1.59375 -10.921875 C 2.007812 -11.910156 2.578125 -12.765625 3.296875 -13.484375 C 4.015625 -14.203125 4.867188 -14.769531 5.859375 -15.1875 C 6.847656 -15.601562 7.894531 -15.8125 9 -15.8125 C 10.113281 -15.8125 11.160156 -15.601562 12.140625 -15.1875 C 13.117188 -14.769531 13.96875 -14.203125 14.6875 -13.484375 C 15.40625 -12.765625 15.972656 -11.910156 16.390625 -10.921875 C 16.804688 -9.941406 17.015625 -8.894531 17.015625 -7.78125 Z M 15.28125 -7.78125 C 15.28125 -8.6875 15.113281 -9.535156 14.78125 -10.328125 C 14.457031 -11.117188 14.015625 -11.800781 13.453125 -12.375 C 12.898438 -12.945312 12.238281 -13.398438 11.46875 -13.734375 C 10.695312 -14.066406 9.875 -14.234375 9 -14.234375 C 8.113281 -14.234375 7.285156 -14.066406 6.515625 -13.734375 C 5.742188 -13.398438 5.078125 -12.945312 4.515625 -12.375 C 3.960938 -11.800781 3.523438 -11.117188 3.203125 -10.328125 C 2.878906 -9.535156 2.71875 -8.6875 2.71875 -7.78125 C 2.71875 -6.875 2.878906 -6.023438 3.203125 -5.234375 C 3.523438 -4.453125 3.960938 -3.769531 4.515625 -3.1875 C 5.078125 -2.613281 5.742188 -2.160156 6.515625 -1.828125 C 7.285156 -1.492188 8.113281 -1.328125 9 -1.328125 C 9.875 -1.328125 10.695312 -1.492188 11.46875 -1.828125 C 12.238281 -2.160156 12.898438 -2.613281 13.453125 -3.1875 C 14.015625 -3.769531 14.457031 -4.453125 14.78125 -5.234375 C 15.113281 -6.023438 15.28125 -6.875 15.28125 -7.78125 Z M 15.28125 -7.78125 "/></g></g><g style="fill:#000000;fill-opacity:1;"><g transform="translate(59.791297, 82.010265)"><path style="stroke:none" d="M 1.40625 0 L 1.40625 -11.140625 L 3.046875 -11.140625 L 3.046875 -9.921875 C 3.460938 -10.390625 3.941406 -10.742188 4.484375 -10.984375 C 5.035156 -11.234375 5.644531 -11.359375 6.3125 -11.359375 C 7.082031 -11.359375 7.773438 -11.175781 8.390625 -10.8125 C 9.003906 -10.445312 9.484375 -9.957031 9.828125 -9.34375 C 10.285156 -10.019531 10.835938 -10.523438 11.484375 -10.859375 C 12.128906 -11.191406 12.851562 -11.359375 13.65625 -11.359375 C 14.851562 -11.359375 15.832031 -10.957031 16.59375 -10.15625 C 17.363281 -9.351562 17.75 -8.316406 17.75 -7.046875 L 17.75 0 L 16.125 0 L 16.125 -6.71875 C 16.125 -7.695312 15.863281 -8.472656 15.34375 -9.046875 C 14.820312 -9.628906 14.117188 -9.921875 13.234375 -9.921875 C 12.617188 -9.921875 12.0625 -9.765625 11.5625 -9.453125 C 11.0625 -9.140625 10.628906 -8.6875 10.265625 -8.09375 C 10.296875 -7.925781 10.320312 -7.757812 10.34375 -7.59375 C 10.375 -7.425781 10.390625 -7.242188 10.390625 -7.046875 L 10.390625 0 L 8.765625 0 L 8.765625 -6.71875 C 8.765625 -7.695312 8.503906 -8.472656 7.984375 -9.046875 C 7.460938 -9.628906 6.765625 -9.921875 5.890625 -9.921875 C 5.296875 -9.921875 4.757812 -9.78125 4.28125 -9.5 C 3.800781 -9.226562 3.390625 -8.828125 3.046875 -8.296875 L 3.046875 0 Z M 1.40625 0 "/></g></g><g style="fill:#000000;fill-opacity:1;"><g transform="translate(78.892195, 82.010265)"><path style="stroke:none" d="M 10.78125 -1.171875 C 10.15625 -0.710938 9.503906 -0.367188 8.828125 -0.140625 C 8.160156 0.0859375 7.425781 0.203125 6.625 0.203125 C 5.820312 0.203125 5.066406 0.0546875 4.359375 -0.234375 C 3.660156 -0.535156 3.054688 -0.945312 2.546875 -1.46875 C 2.035156 -1.988281 1.628906 -2.597656 1.328125 -3.296875 C 1.035156 -4.003906 0.890625 -4.765625 0.890625 -5.578125 C 0.890625 -6.378906 1.03125 -7.128906 1.3125 -7.828125 C 1.601562 -8.523438 1.992188 -9.128906 2.484375 -9.640625 C 2.972656 -10.160156 3.554688 -10.566406 4.234375 -10.859375 C 4.910156 -11.160156 5.625 -11.3125 6.375 -11.3125 C 7.125 -11.3125 7.816406 -11.160156 8.453125 -10.859375 C 9.097656 -10.566406 9.65625 -10.160156 10.125 -9.640625 C 10.59375 -9.128906 10.960938 -8.523438 11.234375 -7.828125 C 11.515625 -7.128906 11.65625 -6.378906 11.65625 -5.578125 L 11.65625 -5.0625 L 2.515625 -5.0625 C 2.628906 -3.96875 3.078125 -3.054688 3.859375 -2.328125 C 4.648438 -1.609375 5.59375 -1.25 6.6875 -1.25 C 7.269531 -1.25 7.832031 -1.335938 8.375 -1.515625 C 8.925781 -1.691406 9.390625 -1.941406 9.765625 -2.265625 Z M 6.34375 -9.875 C 5.375 -9.875 4.535156 -9.546875 3.828125 -8.890625 C 3.128906 -8.242188 2.707031 -7.40625 2.5625 -6.375 L 10 -6.375 C 9.851562 -7.351562 9.4375 -8.179688 8.75 -8.859375 C 8.0625 -9.535156 7.257812 -9.875 6.34375 -9.875 Z M 6.34375 -9.875 "/></g></g><g style="fill:#000000;fill-opacity:1;"><g transform="translate(91.433413, 82.010265)"><path style="stroke:none" d="M 1.40625 0 L 1.40625 -11.140625 L 3.046875 -11.140625 L 3.046875 -9.828125 C 3.472656 -10.328125 3.984375 -10.707031 4.578125 -10.96875 C 5.171875 -11.226562 5.832031 -11.359375 6.5625 -11.359375 C 7.820312 -11.359375 8.847656 -10.957031 9.640625 -10.15625 C 10.441406 -9.351562 10.84375 -8.316406 10.84375 -7.046875 L 10.84375 0 L 9.234375 0 L 9.234375 -6.71875 C 9.234375 -7.695312 8.945312 -8.472656 8.375 -9.046875 C 7.8125 -9.628906 7.054688 -9.921875 6.109375 -9.921875 C 5.441406 -9.921875 4.84375 -9.769531 4.3125 -9.46875 C 3.789062 -9.175781 3.367188 -8.753906 3.046875 -8.203125 L 3.046875 0 Z M 1.40625 0 "/></g></g><g style="fill:#000000;fill-opacity:1;"><g transform="translate(103.641091, 82.010265)"><path style="stroke:none" d="M 2.78125 -2.484375 L 2.78125 -9.734375 L 0.375 -9.734375 L 0.375 -11.140625 L 2.78125 -11.140625 L 2.78125 -13.96875 L 4.40625 -14.390625 L 4.40625 -11.140625 L 7.765625 -11.140625 L 7.765625 -9.734375 L 4.40625 -9.734375 L 4.40625 -2.90625 C 4.40625 -2.3125 4.535156 -1.882812 4.796875 -1.625 C 5.066406 -1.375 5.503906 -1.25 6.109375 -1.25 C 6.421875 -1.25 6.695312 -1.269531 6.9375 -1.3125 C 7.1875 -1.351562 7.453125 -1.425781 7.734375 -1.53125 L 7.734375 -0.09375 C 7.453125 0.0078125 7.132812 0.0820312 6.78125 0.125 C 6.4375 0.175781 6.101562 0.203125 5.78125 0.203125 C 4.8125 0.203125 4.066406 -0.0234375 3.546875 -0.484375 C 3.035156 -0.941406 2.78125 -1.609375 2.78125 -2.484375 Z M 2.78125 -2.484375 "/></g></g><g style="fill:#000000;fill-opacity:1;"><g transform="translate(111.757307, 82.010265)"><path style="stroke:none" d="M 2.21875 -13.28125 C 1.925781 -13.28125 1.664062 -13.390625 1.4375 -13.609375 C 1.21875 -13.828125 1.109375 -14.085938 1.109375 -14.390625 C 1.109375 -14.703125 1.21875 -14.960938 1.4375 -15.171875 C 1.664062 -15.390625 1.925781 -15.5 2.21875 -15.5 C 2.53125 -15.5 2.789062 -15.390625 3 -15.171875 C 3.21875 -14.960938 3.328125 -14.703125 3.328125 -14.390625 C 3.328125 -14.085938 3.21875 -13.828125 3 -13.609375 C 2.789062 -13.390625 2.53125 -13.28125 2.21875 -13.28125 Z M 3.046875 -11.140625 L 3.046875 0 L 1.40625 0 L 1.40625 -11.140625 Z M 3.046875 -11.140625 "/></g></g><g style="fill:#000000;fill-opacity:1;"><g transform="translate(116.204547, 82.010265)"><path style="stroke:none" d="M 6.609375 -1.296875 C 7.203125 -1.296875 7.769531 -1.410156 8.3125 -1.640625 C 8.863281 -1.878906 9.375 -2.226562 9.84375 -2.6875 L 10.875 -1.578125 C 10.28125 -1.015625 9.613281 -0.578125 8.875 -0.265625 C 8.132812 0.046875 7.363281 0.203125 6.5625 0.203125 C 5.769531 0.203125 5.023438 0.0546875 4.328125 -0.234375 C 3.640625 -0.535156 3.039062 -0.945312 2.53125 -1.46875 C 2.03125 -1.988281 1.628906 -2.601562 1.328125 -3.3125 C 1.035156 -4.019531 0.890625 -4.773438 0.890625 -5.578125 C 0.890625 -6.378906 1.035156 -7.128906 1.328125 -7.828125 C 1.628906 -8.535156 2.03125 -9.148438 2.53125 -9.671875 C 3.039062 -10.191406 3.640625 -10.601562 4.328125 -10.90625 C 5.023438 -11.207031 5.769531 -11.359375 6.5625 -11.359375 C 7.363281 -11.359375 8.144531 -11.203125 8.90625 -10.890625 C 9.664062 -10.578125 10.335938 -10.148438 10.921875 -9.609375 L 9.875 -8.40625 C 9.425781 -8.863281 8.910156 -9.21875 8.328125 -9.46875 C 7.753906 -9.71875 7.171875 -9.84375 6.578125 -9.84375 C 6.015625 -9.84375 5.476562 -9.734375 4.96875 -9.515625 C 4.46875 -9.296875 4.035156 -8.992188 3.671875 -8.609375 C 3.316406 -8.222656 3.035156 -7.769531 2.828125 -7.25 C 2.617188 -6.726562 2.515625 -6.171875 2.515625 -5.578125 C 2.515625 -4.972656 2.617188 -4.40625 2.828125 -3.875 C 3.046875 -3.351562 3.335938 -2.898438 3.703125 -2.515625 C 4.066406 -2.140625 4.5 -1.84375 5 -1.625 C 5.507812 -1.40625 6.046875 -1.296875 6.609375 -1.296875 Z M 6.609375 -1.296875 "/></g></g><g style="fill:#000000;fill-opacity:1;"><g transform="translate(127.611721, 82.010265)"><path style="stroke:none" d="M 0.265625 -1.53125 L 1.265625 -2.59375 C 1.765625 -2.125 2.328125 -1.757812 2.953125 -1.5 C 3.585938 -1.238281 4.234375 -1.109375 4.890625 -1.109375 C 5.773438 -1.109375 6.5 -1.289062 7.0625 -1.65625 C 7.632812 -2.03125 7.921875 -2.515625 7.921875 -3.109375 C 7.921875 -3.585938 7.753906 -3.960938 7.421875 -4.234375 C 7.085938 -4.503906 6.5625 -4.691406 5.84375 -4.796875 L 3.90625 -5.0625 C 2.800781 -5.226562 1.976562 -5.554688 1.4375 -6.046875 C 0.894531 -6.546875 0.625 -7.222656 0.625 -8.078125 C 0.625 -9.003906 1.015625 -9.773438 1.796875 -10.390625 C 2.585938 -11.003906 3.585938 -11.3125 4.796875 -11.3125 C 5.597656 -11.3125 6.359375 -11.191406 7.078125 -10.953125 C 7.796875 -10.722656 8.5 -10.351562 9.1875 -9.84375 L 8.3125 -8.734375 C 7.6875 -9.148438 7.082031 -9.460938 6.5 -9.671875 C 5.914062 -9.878906 5.320312 -9.984375 4.71875 -9.984375 C 3.957031 -9.984375 3.335938 -9.8125 2.859375 -9.46875 C 2.378906 -9.125 2.140625 -8.679688 2.140625 -8.140625 C 2.140625 -7.660156 2.300781 -7.289062 2.625 -7.03125 C 2.945312 -6.769531 3.472656 -6.59375 4.203125 -6.5 L 6.140625 -6.21875 C 7.242188 -6.070312 8.070312 -5.742188 8.625 -5.234375 C 9.1875 -4.722656 9.46875 -4.046875 9.46875 -3.203125 C 9.46875 -2.722656 9.351562 -2.269531 9.125 -1.84375 C 8.894531 -1.425781 8.578125 -1.066406 8.171875 -0.765625 C 7.765625 -0.460938 7.285156 -0.222656 6.734375 -0.046875 C 6.191406 0.117188 5.597656 0.203125 4.953125 0.203125 C 4.035156 0.203125 3.171875 0.0507812 2.359375 -0.25 C 1.554688 -0.5625 0.859375 -0.988281 0.265625 -1.53125 Z M 0.265625 -1.53125 "/></g></g><g style="fill:#000000;fill-opacity:1;"><g transform="translate(94.08763, 89.198185)"><path style="stroke:none" d="M 1.921875 -0.21875 L 0.671875 -2.765625 L 0.671875 0 L 0.34375 0 L 0.34375 -3.171875 L 0.84375 -3.171875 L 1.921875 -0.921875 L 3 -3.171875 L 3.484375 -3.171875 L 3.484375 0 L 3.15625 0 L 3.15625 -2.765625 Z M 1.921875 -0.21875 "/></g></g><g style="fill:#000000;fill-opacity:1;"><g transform="translate(97.919116, 89.198185)"><path style="stroke:none" d="M 0.453125 -2.703125 C 0.390625 -2.703125 0.332031 -2.722656 0.28125 -2.765625 C 0.238281 -2.816406 0.21875 -2.875 0.21875 -2.9375 C 0.21875 -3 0.238281 -3.050781 0.28125 -3.09375 C 0.332031 -3.132812 0.390625 -3.15625 0.453125 -3.15625 C 0.515625 -3.15625 0.566406 -3.132812 0.609375 -3.09375 C 0.648438 -3.050781 0.671875 -3 0.671875 -2.9375 C 0.671875 -2.875 0.648438 -2.816406 0.609375 -2.765625 C 0.566406 -2.722656 0.515625 -2.703125 0.453125 -2.703125 Z M 0.625 -2.265625 L 0.625 0 L 0.28125 0 L 0.28125 -2.265625 Z M 0.625 -2.265625 "/></g></g><g style="fill:#000000;fill-opacity:1;"><g transform="translate(98.823838, 89.198185)"><path style="stroke:none" d="M 0.28125 0 L 0.28125 -2.265625 L 0.625 -2.265625 L 0.625 -2 C 0.707031 -2.101562 0.804688 -2.179688 0.921875 -2.234375 C 1.046875 -2.285156 1.1875 -2.3125 1.34375 -2.3125 C 1.59375 -2.3125 1.800781 -2.226562 1.96875 -2.0625 C 2.132812 -1.90625 2.21875 -1.695312 2.21875 -1.4375 L 2.21875 0 L 1.875 0 L 1.875 -1.375 C 1.875 -1.570312 1.816406 -1.726562 1.703125 -1.84375 C 1.585938 -1.957031 1.4375 -2.015625 1.25 -2.015625 C 1.113281 -2.015625 0.988281 -1.984375 0.875 -1.921875 C 0.769531 -1.867188 0.6875 -1.785156 0.625 -1.671875 L 0.625 0 Z M 0.28125 0 "/></g></g><g style="fill:#000000;fill-opacity:1;"><g transform="translate(101.30729, 89.198185)"><path style="stroke:none" d="M 0.453125 -2.703125 C 0.390625 -2.703125 0.332031 -2.722656 0.28125 -2.765625 C 0.238281 -2.816406 0.21875 -2.875 0.21875 -2.9375 C 0.21875 -3 0.238281 -3.050781 0.28125 -3.09375 C 0.332031 -3.132812 0.390625 -3.15625 0.453125 -3.15625 C 0.515625 -3.15625 0.566406 -3.132812 0.609375 -3.09375 C 0.648438 -3.050781 0.671875 -3 0.671875 -2.9375 C 0.671875 -2.875 0.648438 -2.816406 0.609375 -2.765625 C 0.566406 -2.722656 0.515625 -2.703125 0.453125 -2.703125 Z M 0.625 -2.265625 L 0.625 0 L 0.28125 0 L 0.28125 -2.265625 Z M 0.625 -2.265625 "/></g></g><g style="fill:#000000;fill-opacity:1;"><g transform="translate(102.212011, 89.198185)"><path style="stroke:none" d="M 0.28125 0 L 0.28125 -2.265625 L 0.625 -2.265625 L 0.625 -2 C 0.707031 -2.101562 0.804688 -2.179688 0.921875 -2.234375 C 1.046875 -2.285156 1.1875 -2.3125 1.34375 -2.3125 C 1.59375 -2.3125 1.800781 -2.226562 1.96875 -2.0625 C 2.132812 -1.90625 2.21875 -1.695312 2.21875 -1.4375 L 2.21875 0 L 1.875 0 L 1.875 -1.375 C 1.875 -1.570312 1.816406 -1.726562 1.703125 -1.84375 C 1.585938 -1.957031 1.4375 -2.015625 1.25 -2.015625 C 1.113281 -2.015625 0.988281 -1.984375 0.875 -1.921875 C 0.769531 -1.867188 0.6875 -1.785156 0.625 -1.671875 L 0.625 0 Z M 0.28125 0 "/></g></g><g style="fill:#000000;fill-opacity:1;"><g transform="translate(104.695463, 89.198185)"><path style="stroke:none" d="M 1.3125 0.015625 C 1.15625 0.015625 1.007812 -0.0078125 0.875 -0.0625 C 0.738281 -0.125 0.617188 -0.207031 0.515625 -0.3125 C 0.410156 -0.414062 0.328125 -0.539062 0.265625 -0.6875 C 0.210938 -0.832031 0.1875 -0.984375 0.1875 -1.140625 C 0.1875 -1.304688 0.210938 -1.457031 0.265625 -1.59375 C 0.328125 -1.738281 0.410156 -1.863281 0.515625 -1.96875 C 0.617188 -2.070312 0.738281 -2.15625 0.875 -2.21875 C 1.007812 -2.28125 1.160156 -2.3125 1.328125 -2.3125 C 1.453125 -2.3125 1.578125 -2.285156 1.703125 -2.234375 C 1.828125 -2.191406 1.9375 -2.128906 2.03125 -2.046875 L 2.03125 -2.265625 L 2.375 -2.265625 L 2.375 0.046875 C 2.375 0.335938 2.285156 0.5625 2.109375 0.71875 C 1.941406 0.875 1.703125 0.953125 1.390625 0.953125 C 1.234375 0.953125 1.078125 0.929688 0.921875 0.890625 C 0.765625 0.847656 0.625 0.789062 0.5 0.71875 L 0.640625 0.453125 C 0.785156 0.523438 0.914062 0.578125 1.03125 0.609375 C 1.144531 0.648438 1.257812 0.671875 1.375 0.671875 C 1.59375 0.671875 1.753906 0.617188 1.859375 0.515625 C 1.972656 0.410156 2.03125 0.257812 2.03125 0.0625 L 2.03125 -0.25 C 1.925781 -0.164062 1.8125 -0.0976562 1.6875 -0.046875 C 1.570312 -0.00390625 1.445312 0.015625 1.3125 0.015625 Z M 0.515625 -1.140625 C 0.515625 -1.023438 0.535156 -0.910156 0.578125 -0.796875 C 0.617188 -0.691406 0.675781 -0.597656 0.75 -0.515625 C 0.820312 -0.441406 0.910156 -0.382812 1.015625 -0.34375 C 1.117188 -0.300781 1.226562 -0.28125 1.34375 -0.28125 C 1.488281 -0.28125 1.617188 -0.304688 1.734375 -0.359375 C 1.859375 -0.410156 1.957031 -0.488281 2.03125 -0.59375 L 2.03125 -1.703125 C 1.957031 -1.796875 1.859375 -1.867188 1.734375 -1.921875 C 1.609375 -1.984375 1.476562 -2.015625 1.34375 -2.015625 C 1.226562 -2.015625 1.117188 -1.988281 1.015625 -1.9375 C 0.910156 -1.894531 0.820312 -1.832031 0.75 -1.75 C 0.675781 -1.675781 0.617188 -1.585938 0.578125 -1.484375 C 0.535156 -1.378906 0.515625 -1.265625 0.515625 -1.140625 Z M 0.515625 -1.140625 "/></g></g><g style="fill:#000000;fill-opacity:1;"><g transform="translate(107.346287, 89.198185)"><path style="stroke:none" d=""/></g></g><g style="fill:#000000;fill-opacity:1;"><g transform="translate(108.318859, 89.198185)"><path style="stroke:none" d="M 0.078125 -2.859375 L 0.078125 -3.171875 L 2.71875 -3.171875 L 2.71875 -2.859375 L 1.578125 -2.859375 L 1.578125 0 L 1.21875 0 L 1.21875 -2.859375 Z M 0.078125 -2.859375 "/></g></g><g style="fill:#000000;fill-opacity:1;"><g transform="translate(111.109917, 89.198185)"><path style="stroke:none" d="M 2.203125 -0.234375 C 2.066406 -0.140625 1.929688 -0.0664062 1.796875 -0.015625 C 1.660156 0.0234375 1.507812 0.046875 1.34375 0.046875 C 1.1875 0.046875 1.035156 0.015625 0.890625 -0.046875 C 0.742188 -0.109375 0.617188 -0.191406 0.515625 -0.296875 C 0.410156 -0.398438 0.328125 -0.523438 0.265625 -0.671875 C 0.210938 -0.816406 0.1875 -0.972656 0.1875 -1.140625 C 0.1875 -1.296875 0.210938 -1.445312 0.265625 -1.59375 C 0.328125 -1.738281 0.40625 -1.863281 0.5 -1.96875 C 0.601562 -2.070312 0.722656 -2.15625 0.859375 -2.21875 C 0.992188 -2.28125 1.140625 -2.3125 1.296875 -2.3125 C 1.453125 -2.3125 1.59375 -2.28125 1.71875 -2.21875 C 1.851562 -2.15625 1.96875 -2.070312 2.0625 -1.96875 C 2.15625 -1.863281 2.226562 -1.738281 2.28125 -1.59375 C 2.34375 -1.445312 2.375 -1.296875 2.375 -1.140625 L 2.375 -1.03125 L 0.515625 -1.03125 C 0.535156 -0.8125 0.625 -0.625 0.78125 -0.46875 C 0.945312 -0.320312 1.140625 -0.25 1.359375 -0.25 C 1.484375 -0.25 1.597656 -0.265625 1.703125 -0.296875 C 1.816406 -0.335938 1.910156 -0.394531 1.984375 -0.46875 Z M 1.296875 -2.015625 C 1.097656 -2.015625 0.925781 -1.945312 0.78125 -1.8125 C 0.632812 -1.675781 0.546875 -1.503906 0.515625 -1.296875 L 2.03125 -1.296875 C 2.007812 -1.492188 1.925781 -1.660156 1.78125 -1.796875 C 1.644531 -1.941406 1.484375 -2.015625 1.296875 -2.015625 Z M 1.296875 -2.015625 "/></g></g><g style="fill:#000000;fill-opacity:1;"><g transform="translate(113.661225, 89.198185)"><path style="stroke:none" d="M 1.34375 -0.265625 C 1.46875 -0.265625 1.582031 -0.285156 1.6875 -0.328125 C 1.800781 -0.378906 1.90625 -0.453125 2 -0.546875 L 2.21875 -0.328125 C 2.09375 -0.210938 1.953125 -0.117188 1.796875 -0.046875 C 1.648438 0.015625 1.5 0.046875 1.34375 0.046875 C 1.175781 0.046875 1.019531 0.015625 0.875 -0.046875 C 0.738281 -0.109375 0.617188 -0.191406 0.515625 -0.296875 C 0.410156 -0.398438 0.328125 -0.523438 0.265625 -0.671875 C 0.210938 -0.816406 0.1875 -0.972656 0.1875 -1.140625 C 0.1875 -1.296875 0.210938 -1.445312 0.265625 -1.59375 C 0.328125 -1.738281 0.410156 -1.863281 0.515625 -1.96875 C 0.617188 -2.070312 0.738281 -2.15625 0.875 -2.21875 C 1.019531 -2.28125 1.175781 -2.3125 1.34375 -2.3125 C 1.5 -2.3125 1.65625 -2.28125 1.8125 -2.21875 C 1.96875 -2.15625 2.101562 -2.066406 2.21875 -1.953125 L 2.015625 -1.71875 C 1.921875 -1.8125 1.8125 -1.878906 1.6875 -1.921875 C 1.570312 -1.972656 1.457031 -2 1.34375 -2 C 1.226562 -2 1.117188 -1.976562 1.015625 -1.9375 C 0.910156 -1.894531 0.820312 -1.832031 0.75 -1.75 C 0.675781 -1.675781 0.617188 -1.582031 0.578125 -1.46875 C 0.535156 -1.363281 0.515625 -1.253906 0.515625 -1.140625 C 0.515625 -1.015625 0.535156 -0.894531 0.578125 -0.78125 C 0.617188 -0.675781 0.675781 -0.585938 0.75 -0.515625 C 0.820312 -0.441406 0.910156 -0.378906 1.015625 -0.328125 C 1.117188 -0.285156 1.226562 -0.265625 1.34375 -0.265625 Z M 1.34375 -0.265625 "/></g></g><g style="fill:#000000;fill-opacity:1;"><g transform="translate(115.981826, 89.198185)"><path style="stroke:none" d="M 0.28125 0 L 0.28125 -3.171875 L 0.625 -3.25 L 0.625 -2 C 0.707031 -2.101562 0.804688 -2.179688 0.921875 -2.234375 C 1.046875 -2.285156 1.1875 -2.3125 1.34375 -2.3125 C 1.59375 -2.3125 1.800781 -2.226562 1.96875 -2.0625 C 2.132812 -1.90625 2.21875 -1.695312 2.21875 -1.4375 L 2.21875 0 L 1.875 0 L 1.875 -1.375 C 1.875 -1.570312 1.816406 -1.726562 1.703125 -1.84375 C 1.585938 -1.957031 1.4375 -2.015625 1.25 -2.015625 C 1.113281 -2.015625 0.988281 -1.984375 0.875 -1.921875 C 0.769531 -1.867188 0.6875 -1.785156 0.625 -1.671875 L 0.625 0 Z M 0.28125 0 "/></g></g><g style="fill:#000000;fill-opacity:1;"><g transform="translate(118.465278, 89.198185)"><path style="stroke:none" d="M 0.28125 0 L 0.28125 -2.265625 L 0.625 -2.265625 L 0.625 -2 C 0.707031 -2.101562 0.804688 -2.179688 0.921875 -2.234375 C 1.046875 -2.285156 1.1875 -2.3125 1.34375 -2.3125 C 1.59375 -2.3125 1.800781 -2.226562 1.96875 -2.0625 C 2.132812 -1.90625 2.21875 -1.695312 2.21875 -1.4375 L 2.21875 0 L 1.875 0 L 1.875 -1.375 C 1.875 -1.570312 1.816406 -1.726562 1.703125 -1.84375 C 1.585938 -1.957031 1.4375 -2.015625 1.25 -2.015625 C 1.113281 -2.015625 0.988281 -1.984375 0.875 -1.921875 C 0.769531 -1.867188 0.6875 -1.785156 0.625 -1.671875 L 0.625 0 Z M 0.28125 0 "/></g></g><g style="fill:#000000;fill-opacity:1;"><g transform="translate(120.94873, 89.198185)"><path style="stroke:none" d="M 0.1875 -1.140625 C 0.1875 -1.296875 0.210938 -1.445312 0.265625 -1.59375 C 0.328125 -1.738281 0.410156 -1.863281 0.515625 -1.96875 C 0.617188 -2.082031 0.738281 -2.164062 0.875 -2.21875 C 1.019531 -2.28125 1.175781 -2.3125 1.34375 -2.3125 C 1.5 -2.3125 1.644531 -2.28125 1.78125 -2.21875 C 1.925781 -2.164062 2.050781 -2.082031 2.15625 -1.96875 C 2.257812 -1.863281 2.34375 -1.738281 2.40625 -1.59375 C 2.46875 -1.445312 2.5 -1.296875 2.5 -1.140625 C 2.5 -0.972656 2.46875 -0.816406 2.40625 -0.671875 C 2.34375 -0.523438 2.257812 -0.398438 2.15625 -0.296875 C 2.050781 -0.191406 1.925781 -0.109375 1.78125 -0.046875 C 1.644531 0.015625 1.5 0.046875 1.34375 0.046875 C 1.175781 0.046875 1.019531 0.015625 0.875 -0.046875 C 0.738281 -0.109375 0.617188 -0.191406 0.515625 -0.296875 C 0.410156 -0.398438 0.328125 -0.523438 0.265625 -0.671875 C 0.210938 -0.816406 0.1875 -0.972656 0.1875 -1.140625 Z M 1.34375 -0.25 C 1.457031 -0.25 1.5625 -0.269531 1.65625 -0.3125 C 1.757812 -0.363281 1.847656 -0.425781 1.921875 -0.5 C 1.992188 -0.582031 2.050781 -0.675781 2.09375 -0.78125 C 2.144531 -0.894531 2.171875 -1.015625 2.171875 -1.140625 C 2.171875 -1.265625 2.144531 -1.378906 2.09375 -1.484375 C 2.050781 -1.585938 1.992188 -1.675781 1.921875 -1.75 C 1.847656 -1.832031 1.757812 -1.894531 1.65625 -1.9375 C 1.5625 -1.988281 1.457031 -2.015625 1.34375 -2.015625 C 1.226562 -2.015625 1.117188 -1.988281 1.015625 -1.9375 C 0.910156 -1.894531 0.820312 -1.832031 0.75 -1.75 C 0.675781 -1.675781 0.617188 -1.585938 0.578125 -1.484375 C 0.535156 -1.378906 0.515625 -1.265625 0.515625 -1.140625 C 0.515625 -1.015625 0.535156 -0.894531 0.578125 -0.78125 C 0.617188 -0.675781 0.675781 -0.582031 0.75 -0.5 C 0.820312 -0.425781 0.910156 -0.363281 1.015625 -0.3125 C 1.117188 -0.269531 1.226562 -0.25 1.34375 -0.25 Z M 1.34375 -0.25 "/></g></g><g style="fill:#000000;fill-opacity:1;"><g transform="translate(123.622176, 89.198185)"><path style="stroke:none" d="M 0.625 -3.25 L 0.625 0 L 0.28125 0 L 0.28125 -3.171875 Z M 0.625 -3.25 "/></g></g><g style="fill:#000000;fill-opacity:1;"><g transform="translate(124.526897, 89.198185)"><path style="stroke:none" d="M 0.1875 -1.140625 C 0.1875 -1.296875 0.210938 -1.445312 0.265625 -1.59375 C 0.328125 -1.738281 0.410156 -1.863281 0.515625 -1.96875 C 0.617188 -2.082031 0.738281 -2.164062 0.875 -2.21875 C 1.019531 -2.28125 1.175781 -2.3125 1.34375 -2.3125 C 1.5 -2.3125 1.644531 -2.28125 1.78125 -2.21875 C 1.925781 -2.164062 2.050781 -2.082031 2.15625 -1.96875 C 2.257812 -1.863281 2.34375 -1.738281 2.40625 -1.59375 C 2.46875 -1.445312 2.5 -1.296875 2.5 -1.140625 C 2.5 -0.972656 2.46875 -0.816406 2.40625 -0.671875 C 2.34375 -0.523438 2.257812 -0.398438 2.15625 -0.296875 C 2.050781 -0.191406 1.925781 -0.109375 1.78125 -0.046875 C 1.644531 0.015625 1.5 0.046875 1.34375 0.046875 C 1.175781 0.046875 1.019531 0.015625 0.875 -0.046875 C 0.738281 -0.109375 0.617188 -0.191406 0.515625 -0.296875 C 0.410156 -0.398438 0.328125 -0.523438 0.265625 -0.671875 C 0.210938 -0.816406 0.1875 -0.972656 0.1875 -1.140625 Z M 1.34375 -0.25 C 1.457031 -0.25 1.5625 -0.269531 1.65625 -0.3125 C 1.757812 -0.363281 1.847656 -0.425781 1.921875 -0.5 C 1.992188 -0.582031 2.050781 -0.675781 2.09375 -0.78125 C 2.144531 -0.894531 2.171875 -1.015625 2.171875 -1.140625 C 2.171875 -1.265625 2.144531 -1.378906 2.09375 -1.484375 C 2.050781 -1.585938 1.992188 -1.675781 1.921875 -1.75 C 1.847656 -1.832031 1.757812 -1.894531 1.65625 -1.9375 C 1.5625 -1.988281 1.457031 -2.015625 1.34375 -2.015625 C 1.226562 -2.015625 1.117188 -1.988281 1.015625 -1.9375 C 0.910156 -1.894531 0.820312 -1.832031 0.75 -1.75 C 0.675781 -1.675781 0.617188 -1.585938 0.578125 -1.484375 C 0.535156 -1.378906 0.515625 -1.265625 0.515625 -1.140625 C 0.515625 -1.015625 0.535156 -0.894531 0.578125 -0.78125 C 0.617188 -0.675781 0.675781 -0.582031 0.75 -0.5 C 0.820312 -0.425781 0.910156 -0.363281 1.015625 -0.3125 C 1.117188 -0.269531 1.226562 -0.25 1.34375 -0.25 Z M 1.34375 -0.25 "/></g></g><g style="fill:#000000;fill-opacity:1;"><g transform="translate(127.200344, 89.198185)"><path style="stroke:none" d="M 1.3125 0.015625 C 1.15625 0.015625 1.007812 -0.0078125 0.875 -0.0625 C 0.738281 -0.125 0.617188 -0.207031 0.515625 -0.3125 C 0.410156 -0.414062 0.328125 -0.539062 0.265625 -0.6875 C 0.210938 -0.832031 0.1875 -0.984375 0.1875 -1.140625 C 0.1875 -1.304688 0.210938 -1.457031 0.265625 -1.59375 C 0.328125 -1.738281 0.410156 -1.863281 0.515625 -1.96875 C 0.617188 -2.070312 0.738281 -2.15625 0.875 -2.21875 C 1.007812 -2.28125 1.160156 -2.3125 1.328125 -2.3125 C 1.453125 -2.3125 1.578125 -2.285156 1.703125 -2.234375 C 1.828125 -2.191406 1.9375 -2.128906 2.03125 -2.046875 L 2.03125 -2.265625 L 2.375 -2.265625 L 2.375 0.046875 C 2.375 0.335938 2.285156 0.5625 2.109375 0.71875 C 1.941406 0.875 1.703125 0.953125 1.390625 0.953125 C 1.234375 0.953125 1.078125 0.929688 0.921875 0.890625 C 0.765625 0.847656 0.625 0.789062 0.5 0.71875 L 0.640625 0.453125 C 0.785156 0.523438 0.914062 0.578125 1.03125 0.609375 C 1.144531 0.648438 1.257812 0.671875 1.375 0.671875 C 1.59375 0.671875 1.753906 0.617188 1.859375 0.515625 C 1.972656 0.410156 2.03125 0.257812 2.03125 0.0625 L 2.03125 -0.25 C 1.925781 -0.164062 1.8125 -0.0976562 1.6875 -0.046875 C 1.570312 -0.00390625 1.445312 0.015625 1.3125 0.015625 Z M 0.515625 -1.140625 C 0.515625 -1.023438 0.535156 -0.910156 0.578125 -0.796875 C 0.617188 -0.691406 0.675781 -0.597656 0.75 -0.515625 C 0.820312 -0.441406 0.910156 -0.382812 1.015625 -0.34375 C 1.117188 -0.300781 1.226562 -0.28125 1.34375 -0.28125 C 1.488281 -0.28125 1.617188 -0.304688 1.734375 -0.359375 C 1.859375 -0.410156 1.957031 -0.488281 2.03125 -0.59375 L 2.03125 -1.703125 C 1.957031 -1.796875 1.859375 -1.867188 1.734375 -1.921875 C 1.609375 -1.984375 1.476562 -2.015625 1.34375 -2.015625 C 1.226562 -2.015625 1.117188 -1.988281 1.015625 -1.9375 C 0.910156 -1.894531 0.820312 -1.832031 0.75 -1.75 C 0.675781 -1.675781 0.617188 -1.585938 0.578125 -1.484375 C 0.535156 -1.378906 0.515625 -1.265625 0.515625 -1.140625 Z M 0.515625 -1.140625 "/></g></g><g style="fill:#000000;fill-opacity:1;"><g transform="translate(129.851168, 89.198185)"><path style="stroke:none" d="M 0.453125 -2.703125 C 0.390625 -2.703125 0.332031 -2.722656 0.28125 -2.765625 C 0.238281 -2.816406 0.21875 -2.875 0.21875 -2.9375 C 0.21875 -3 0.238281 -3.050781 0.28125 -3.09375 C 0.332031 -3.132812 0.390625 -3.15625 0.453125 -3.15625 C 0.515625 -3.15625 0.566406 -3.132812 0.609375 -3.09375 C 0.648438 -3.050781 0.671875 -3 0.671875 -2.9375 C 0.671875 -2.875 0.648438 -2.816406 0.609375 -2.765625 C 0.566406 -2.722656 0.515625 -2.703125 0.453125 -2.703125 Z M 0.625 -2.265625 L 0.625 0 L 0.28125 0 L 0.28125 -2.265625 Z M 0.625 -2.265625 "/></g></g><g style="fill:#000000;fill-opacity:1;"><g transform="translate(130.755889, 89.198185)"><path style="stroke:none" d="M 2.203125 -0.234375 C 2.066406 -0.140625 1.929688 -0.0664062 1.796875 -0.015625 C 1.660156 0.0234375 1.507812 0.046875 1.34375 0.046875 C 1.1875 0.046875 1.035156 0.015625 0.890625 -0.046875 C 0.742188 -0.109375 0.617188 -0.191406 0.515625 -0.296875 C 0.410156 -0.398438 0.328125 -0.523438 0.265625 -0.671875 C 0.210938 -0.816406 0.1875 -0.972656 0.1875 -1.140625 C 0.1875 -1.296875 0.210938 -1.445312 0.265625 -1.59375 C 0.328125 -1.738281 0.40625 -1.863281 0.5 -1.96875 C 0.601562 -2.070312 0.722656 -2.15625 0.859375 -2.21875 C 0.992188 -2.28125 1.140625 -2.3125 1.296875 -2.3125 C 1.453125 -2.3125 1.59375 -2.28125 1.71875 -2.21875 C 1.851562 -2.15625 1.96875 -2.070312 2.0625 -1.96875 C 2.15625 -1.863281 2.226562 -1.738281 2.28125 -1.59375 C 2.34375 -1.445312 2.375 -1.296875 2.375 -1.140625 L 2.375 -1.03125 L 0.515625 -1.03125 C 0.535156 -0.8125 0.625 -0.625 0.78125 -0.46875 C 0.945312 -0.320312 1.140625 -0.25 1.359375 -0.25 C 1.484375 -0.25 1.597656 -0.265625 1.703125 -0.296875 C 1.816406 -0.335938 1.910156 -0.394531 1.984375 -0.46875 Z M 1.296875 -2.015625 C 1.097656 -2.015625 0.925781 -1.945312 0.78125 -1.8125 C 0.632812 -1.675781 0.546875 -1.503906 0.515625 -1.296875 L 2.03125 -1.296875 C 2.007812 -1.492188 1.925781 -1.660156 1.78125 -1.796875 C 1.644531 -1.941406 1.484375 -2.015625 1.296875 -2.015625 Z M 1.296875 -2.015625 "/></g></g><g style="fill:#000000;fill-opacity:1;"><g transform="translate(133.307197, 89.198185)"><path style="stroke:none" d="M 0.046875 -0.3125 L 0.265625 -0.53125 C 0.359375 -0.4375 0.46875 -0.359375 0.59375 -0.296875 C 0.726562 -0.242188 0.863281 -0.21875 1 -0.21875 C 1.175781 -0.21875 1.320312 -0.253906 1.4375 -0.328125 C 1.550781 -0.410156 1.609375 -0.515625 1.609375 -0.640625 C 1.609375 -0.734375 1.570312 -0.804688 1.5 -0.859375 C 1.4375 -0.921875 1.332031 -0.960938 1.1875 -0.984375 L 0.796875 -1.03125 C 0.566406 -1.0625 0.394531 -1.128906 0.28125 -1.234375 C 0.175781 -1.335938 0.125 -1.472656 0.125 -1.640625 C 0.125 -1.835938 0.203125 -2 0.359375 -2.125 C 0.523438 -2.25 0.734375 -2.3125 0.984375 -2.3125 C 1.140625 -2.3125 1.289062 -2.285156 1.4375 -2.234375 C 1.582031 -2.179688 1.726562 -2.101562 1.875 -2 L 1.6875 -1.78125 C 1.5625 -1.863281 1.4375 -1.925781 1.3125 -1.96875 C 1.195312 -2.007812 1.078125 -2.03125 0.953125 -2.03125 C 0.804688 -2.03125 0.679688 -1.992188 0.578125 -1.921875 C 0.484375 -1.859375 0.4375 -1.769531 0.4375 -1.65625 C 0.4375 -1.5625 0.46875 -1.488281 0.53125 -1.4375 C 0.601562 -1.382812 0.710938 -1.347656 0.859375 -1.328125 L 1.25 -1.265625 C 1.476562 -1.234375 1.648438 -1.164062 1.765625 -1.0625 C 1.878906 -0.957031 1.9375 -0.820312 1.9375 -0.65625 C 1.9375 -0.550781 1.910156 -0.457031 1.859375 -0.375 C 1.816406 -0.289062 1.753906 -0.21875 1.671875 -0.15625 C 1.585938 -0.09375 1.488281 -0.0390625 1.375 0 C 1.257812 0.03125 1.140625 0.046875 1.015625 0.046875 C 0.828125 0.046875 0.648438 0.015625 0.484375 -0.046875 C 0.316406 -0.109375 0.171875 -0.195312 0.046875 -0.3125 Z M 0.046875 -0.3125 "/></g></g><g style="fill:#000000;fill-opacity:1;"><g transform="translate(135.324719, 89.198185)"><path style="stroke:none" d="M 0.453125 -0.4375 C 0.515625 -0.4375 0.566406 -0.410156 0.609375 -0.359375 C 0.648438 -0.316406 0.671875 -0.265625 0.671875 -0.203125 C 0.671875 -0.140625 0.648438 -0.0820312 0.609375 -0.03125 C 0.566406 0.0078125 0.515625 0.03125 0.453125 0.03125 C 0.390625 0.03125 0.332031 0.0078125 0.28125 -0.03125 C 0.238281 -0.0820312 0.21875 -0.140625 0.21875 -0.203125 C 0.21875 -0.265625 0.238281 -0.316406 0.28125 -0.359375 C 0.332031 -0.410156 0.390625 -0.4375 0.453125 -0.4375 Z M 0.453125 -0.4375 "/></g></g></g></svg>